<svg xmlns="http://www.w3.org/2000/svg" version="1.1" xmlns:xlink="http://www.w3.org/1999/xlink" width="24" height="24"><svg xmlns="http://www.w3.org/2000/svg" fill="none" viewBox="0 0 24 24">
  <!-- Main table blocks -->
  <rect x="2" y="3" width="7" height="9" stroke="currentColor" stroke-width="1" fill="none" rx="1.5"></rect>
  <rect x="15" y="3" width="7" height="9" stroke="currentColor" stroke-width="1" fill="none" rx="1.5"></rect>
  <rect x="8" y="14" width="8" height="7" stroke="currentColor" stroke-width="1" fill="none" rx="1.5"></rect>
  
  <!-- Relationship connections -->
  <line x1="9" y1="7.5" x2="15" y2="7.5" stroke="currentColor" stroke-width="1"></line>
  <line x1="12" y1="12" x2="12" y2="14" stroke="currentColor" stroke-width="1"></line>
  
  <!-- Connection points -->
  <circle cx="9" cy="7.5" r="1.5" fill="currentColor"></circle>
  <circle cx="15" cy="7.5" r="1.5" fill="currentColor"></circle>
  <circle cx="12" cy="12" r="1.5" fill="currentColor"></circle>
  <circle cx="12" cy="14" r="1.5" fill="currentColor"></circle>
  
  <!-- Table field indicators -->
  <line x1="3.5" y1="5.5" x2="7" y2="5.5" stroke="currentColor" stroke-width="0.5" opacity="0.6"></line>
  <line x1="3.5" y1="7" x2="6" y2="7" stroke="currentColor" stroke-width="0.5" opacity="0.6"></line>
  <line x1="3.5" y1="8.5" x2="6.5" y2="8.5" stroke="currentColor" stroke-width="0.5" opacity="0.6"></line>
  
  <line x1="16.5" y1="5.5" x2="20" y2="5.5" stroke="currentColor" stroke-width="0.5" opacity="0.6"></line>
  <line x1="16.5" y1="7" x2="19" y2="7" stroke="currentColor" stroke-width="0.5" opacity="0.6"></line>
  <line x1="16.5" y1="8.5" x2="19.5" y2="8.5" stroke="currentColor" stroke-width="0.5" opacity="0.6"></line>
  
  <line x1="9.5" y1="16.5" x2="14" y2="16.5" stroke="currentColor" stroke-width="0.5" opacity="0.6"></line>
  <line x1="9.5" y1="18" x2="13" y2="18" stroke="currentColor" stroke-width="0.5" opacity="0.6"></line>
  
  <style>
    * { 
      stroke: #000; 
      fill: #000; 
    }
    @media (prefers-color-scheme: dark) {
      * { 
        stroke: #FFF; 
        fill: #FFF; 
      }
    }
  </style>
</svg><style>@media (prefers-color-scheme: light) { :root { filter: none; } }
@media (prefers-color-scheme: dark) { :root { filter: none; } }
</style></svg>